<?xml version="1.0" ?><!DOCTYPE svg  PUBLIC '-//W3C//DTD SVG 1.1//EN'  'http://www.w3.org/Graphics/SVG/1.1/DTD/svg11.dtd'><svg height="100%" style="fill-rule:evenodd;clip-rule:evenodd;stroke-linejoin:round;stroke-miterlimit:2;" version="1.1" viewBox="0 0 32 32" width="100%" xml:space="preserve" xmlns="http://www.w3.org/2000/svg" xmlns:serif="http://www.serif.com/" xmlns:xlink="http://www.w3.org/1999/xlink"><path d="M23.5,12c-0,-1.381 -1.119,-2.5 -2.5,-2.5c-2.661,0 -7.339,0 -10,0c-1.381,0 -2.5,1.119 -2.5,2.5c0,3.074 0,8.926 0,12c0,1.381 1.119,2.5 2.5,2.5c2.661,0 7.339,0 10,-0c1.381,-0 2.5,-1.119 2.5,-2.5l-0,-12Zm-1,-0c-0,-0.828 -0.672,-1.5 -1.5,-1.5c-2.661,0 -7.339,-0 -10,-0c-0.828,0 -1.5,0.672 -1.5,1.5c0,3.074 0,8.926 -0,12c0,0.828 0.672,1.5 1.5,1.5c2.661,0 7.339,0 10,0c0.828,-0 1.5,-0.672 1.5,-1.5l-0,-12Z"/><path d="M10,8.5l12,-0c0.276,-0 0.5,-0.224 0.5,-0.5c-0,-0.276 -0.224,-0.5 -0.5,-0.5l-12,0c-0.276,-0 -0.5,0.224 -0.5,0.5c-0,0.276 0.224,0.5 0.5,0.5Z"/><path d="M19.5,7c0,-0.398 -0.158,-0.779 -0.439,-1.061c-0.282,-0.281 -0.663,-0.439 -1.061,-0.439c-1.11,0 -2.89,0 -4,0c-0.398,-0 -0.779,0.158 -1.061,0.439c-0.281,0.282 -0.439,0.663 -0.439,1.061c0,0.5 0,1 0,1c0,0.276 0.224,0.5 0.5,0.5l6,0c0.276,0 0.5,-0.224 0.5,-0.5l0,-1Zm-1,0.5l0,-0.5c0,-0.133 -0.053,-0.26 -0.146,-0.354c-0.094,-0.093 -0.221,-0.146 -0.354,-0.146c-1.11,0 -2.89,0 -4,-0c-0.133,-0 -0.26,0.053 -0.354,0.146c-0.093,0.094 -0.146,0.221 -0.146,0.354l-0,0.5l5,-0Z"/></svg>