<?xml version="1.0" ?><!DOCTYPE svg  PUBLIC '-//W3C//DTD SVG 1.1//EN'  'http://www.w3.org/Graphics/SVG/1.1/DTD/svg11.dtd'><svg height="100%" style="fill-rule:evenodd;clip-rule:evenodd;stroke-linejoin:round;stroke-miterlimit:2;" version="1.1" viewBox="0 0 32 32" width="100%" xml:space="preserve" xmlns="http://www.w3.org/2000/svg" xmlns:serif="http://www.serif.com/" xmlns:xlink="http://www.w3.org/1999/xlink"><path d="M25.25,11.285c-0,-0.979 -0.571,-1.867 -1.461,-2.274c-1.794,-0.82 -5.184,-2.37 -6.75,-3.086c-0.66,-0.301 -1.418,-0.301 -2.078,0c-1.566,0.716 -4.956,2.266 -6.75,3.086c-0.89,0.407 -1.461,1.295 -1.461,2.274c-0,2.306 -0,7.124 -0,9.43c0,0.979 0.571,1.867 1.461,2.274c1.794,0.82 5.184,2.37 6.75,3.086c0.66,0.301 1.418,0.301 2.078,-0c1.566,-0.716 4.956,-2.266 6.75,-3.086c0.89,-0.407 1.461,-1.295 1.461,-2.274l-0,-9.43Zm-1,-0c-0,-0.587 -0.342,-1.12 -0.876,-1.364c-1.795,-0.821 -5.184,-2.37 -6.75,-3.086c-0.396,-0.181 -0.852,-0.181 -1.248,-0c-1.566,0.716 -4.955,2.265 -6.75,3.086c-0.534,0.244 -0.876,0.777 -0.876,1.364c-0,2.306 -0,7.124 -0,9.43c0,0.587 0.342,1.12 0.876,1.364c1.795,0.821 5.184,2.37 6.75,3.086c0.396,0.181 0.852,0.181 1.248,0c1.566,-0.716 4.955,-2.265 6.75,-3.086c0.534,-0.244 0.876,-0.777 0.876,-1.364l0,-9.43Z"/><path d="M16,12.5c-1.932,0 -3.5,1.568 -3.5,3.5c0,1.932 1.568,3.5 3.5,3.5c1.932,0 3.5,-1.568 3.5,-3.5c0,-1.932 -1.568,-3.5 -3.5,-3.5Zm0,1c1.38,0 2.5,1.12 2.5,2.5c0,1.38 -1.12,2.5 -2.5,2.5c-1.38,0 -2.5,-1.12 -2.5,-2.5c0,-1.38 1.12,-2.5 2.5,-2.5Z"/></svg>